<svg version="1.1" id="Layer_1" xmlns="http://www.w3.org/2000/svg" xmlns:xlink="http://www.w3.org/1999/xlink" x="0px" y="0px"
	 width="100%" viewBox="0 0 512 512" enable-background="new 0 0 512 512" xml:space="preserve">
<path fill="#000000" opacity="1.000000" stroke="none" 
	d="
M1.000000,98.000000 
	C1.000000,65.686615 1.000000,33.373230 1.000004,1.060912 
	C171.666672,1.061979 342.333344,1.061979 513.000000,1.061979 
	C513.000000,34.103535 513.000000,67.083107 512.727234,100.835197 
	C506.989166,95.919861 501.548706,90.207855 496.048615,84.553879 
	C493.077820,81.500000 489.547302,81.296349 485.720215,82.732864 
	C481.751587,84.222504 481.465881,87.702148 482.151093,90.817245 
	C482.855255,94.018196 484.769470,96.952965 486.114166,99.916100 
	C471.574677,99.916100 456.816437,99.916100 441.918701,99.592262 
	C439.140961,95.835213 437.062744,91.686073 433.759918,89.102531 
	C423.706787,81.238876 413.236938,82.507011 402.622009,89.093681 
	C389.228333,81.666405 376.220093,74.281975 363.168488,66.974976 
	C342.797241,55.570049 322.396637,44.217628 302.004883,32.403469 
	C302.883484,16.959578 294.521454,8.520878 284.708923,5.284524 
	C271.026642,0.771870 256.401611,10.559661 254.358566,21.011070 
	C232.290375,20.966793 210.675659,20.929365 189.029556,20.527065 
	C188.637604,19.274284 188.359390,18.341572 187.904221,17.505150 
	C180.259171,3.456336 161.154266,-0.642423 148.910248,11.379985 
	C142.558334,17.616932 141.637695,24.923290 141.571930,33.086792 
	C128.898376,40.139072 116.529045,47.013367 104.215073,53.985432 
	C92.593689,60.565357 81.084480,67.344742 69.424751,73.855202 
	C60.034569,79.098412 50.493408,84.071220 40.654808,89.087708 
	C27.804768,79.867500 9.600047,82.811577 2.801552,97.563873 
	C2.641096,97.912048 1.619783,97.863503 1.000000,98.000000 
z"/>
<path fill="#000000" opacity="1.000000" stroke="none" 
	d="
M513.000000,413.000000 
	C513.000000,446.312744 513.000000,479.625488 513.000000,512.938660 
	C342.333313,512.939087 171.666656,512.939087 1.000000,512.939087 
	C1.000000,480.897919 1.000000,448.917633 1.286935,416.167938 
	C2.027281,415.852142 2.623127,416.229523 2.912850,416.770752 
	C7.660489,425.639587 15.059929,430.658508 25.080481,429.778473 
	C30.488659,429.303497 35.697659,426.560638 41.363831,424.915527 
	C54.018585,431.992798 66.255814,439.085480 78.604668,445.978119 
	C99.664879,457.733124 120.795189,469.362549 141.943634,481.498108 
	C142.110809,485.254425 141.588120,488.739868 142.465546,491.827423 
	C145.602081,502.864441 154.915695,509.596527 165.724884,509.845734 
	C174.924026,510.057831 185.748810,504.347931 189.523193,493.058899 
	C211.593735,493.000244 233.202332,492.990112 254.895172,493.354370 
	C259.316864,509.064606 280.029999,515.321045 293.403473,504.049866 
	C300.504974,498.064728 302.522919,490.060089 302.338013,481.007324 
	C314.291565,474.264893 325.920471,467.680298 337.538544,461.076569 
	C349.158600,454.471680 360.711792,447.746704 372.398804,441.262756 
	C382.520111,435.647491 392.787842,430.296204 403.320374,424.986176 
	C411.975098,430.756409 420.625946,431.763977 429.976532,427.619324 
	C436.175934,424.871460 439.220734,419.654144 442.520142,414.046326 
	C457.503601,414.007599 472.023407,414.007599 487.214508,414.007599 
	C485.779022,415.625244 484.810181,416.501648 484.101501,417.553375 
	C481.228516,421.817261 481.251129,428.227295 484.066467,430.636780 
	C487.158539,433.283142 493.379608,432.235046 497.236633,428.221741 
	C501.927521,423.340790 506.462555,418.310242 511.129517,413.405823 
	C511.493378,413.023499 512.364563,413.123932 513.000000,413.000000 
z"/>
<path fill="#000000" opacity="1.000000" stroke="none" 
	d="
M513.000000,115.000000 
	C513.000000,159.687561 513.000000,204.375122 512.721313,249.835022 
	C506.852478,244.793213 501.341064,238.900452 495.639099,233.198166 
	C492.795532,230.354431 489.304565,230.400787 485.662201,231.780182 
	C481.885010,233.210648 481.403748,236.491394 482.161041,239.441635 
	C482.983917,242.647430 485.065033,245.530273 486.781769,248.917465 
	C471.838165,248.917465 456.948120,248.917465 441.917847,248.592224 
	C440.173767,245.670044 438.850952,242.838364 436.914246,240.519379 
	C430.674683,233.048126 422.076599,232.533524 413.125641,232.644775 
	C403.726593,217.076248 394.458099,201.848495 385.136444,186.653320 
	C380.043030,178.350525 374.859619,170.102921 369.748688,161.881729 
	C379.811646,151.430511 389.556732,141.329544 399.269836,131.197891 
	C400.588196,129.822739 401.746490,128.294144 403.306580,126.987656 
	C410.343781,132.944305 418.220062,133.000351 426.190216,131.226944 
	C434.355011,129.410233 438.861176,123.331924 442.520752,116.046646 
	C457.838989,116.007751 472.693573,116.007751 487.548157,116.007751 
	C487.734589,116.389557 487.921021,116.771355 488.107422,117.153160 
	C486.834717,118.164032 485.460480,119.071838 484.309021,120.205826 
	C481.327179,123.142548 481.071869,129.549149 483.732086,132.229904 
	C486.269012,134.786453 492.474274,134.887772 495.441864,131.937744 
	C500.943451,126.468742 506.144775,120.698212 511.519684,115.099861 
	C511.772980,114.836006 512.495850,115.022980 513.000000,115.000000 
z"/>
<path fill="#000000" opacity="1.000000" stroke="none" 
	d="
M513.000000,264.000000 
	C513.000000,308.687561 513.000000,353.375122 512.725586,398.834412 
	C506.959290,393.886536 501.530182,388.104767 495.950165,382.472504 
	C492.989502,379.484070 489.456421,379.292450 485.590088,380.834534 
	C481.804871,382.344238 481.343872,385.646790 482.173340,388.540955 
	C483.125671,391.863892 485.399109,394.808228 487.097626,397.915161 
	C472.282593,397.915161 457.169769,397.915161 441.916718,397.590332 
	C438.799988,393.501190 436.301941,389.187836 432.745758,386.088745 
	C425.696564,379.945679 417.226959,381.584137 408.664001,383.021118 
	C402.944855,377.126587 397.539032,371.371643 392.123413,365.625946 
	C386.592743,359.758240 380.981049,353.963745 375.592133,347.968872 
	C374.769012,347.053162 374.239136,344.797333 374.785034,343.890778 
	C381.742859,332.336060 388.968506,320.943146 396.030426,309.450348 
	C401.833099,300.006897 407.508301,290.485077 413.680786,281.008148 
	C427.085693,282.107147 436.969147,277.795166 442.524048,265.044617 
	C457.618835,265.007294 472.250092,265.007294 488.113312,265.007294 
	C486.159363,267.154419 485.212708,268.235107 484.222900,269.274628 
	C481.502319,272.131805 481.092010,278.200531 483.452209,280.949829 
	C485.725647,283.598053 492.155884,283.989441 495.149109,281.213257 
	C500.500580,276.249847 505.565216,270.977631 510.768768,265.853821 
	C511.455322,265.177795 512.253479,264.615143 513.000000,264.000000 
z"/>
<path fill="#000000" opacity="1.000000" stroke="none" 
	d="
M1.000000,247.000000 
	C1.000000,204.312439 1.000000,161.624878 1.286253,118.166214 
	C5.179720,121.288246 8.154189,126.236137 12.524215,128.857666 
	C21.986197,134.533798 31.748806,133.415878 40.943169,127.292107 
	C51.105171,137.948059 61.032021,148.370285 71.180473,158.572067 
	C73.731972,161.136978 73.444443,163.072617 71.703613,165.824585 
	C63.719467,178.446228 55.901711,191.173050 48.013912,203.855713 
	C41.982006,213.554321 35.934669,223.243332 29.440205,232.964539 
	C17.049696,231.727188 8.001694,235.946198 2.447048,246.896042 
	C2.334345,247.118210 1.498484,246.973541 1.000000,247.000000 
z"/>
<path fill="#000000" opacity="1.000000" stroke="none" 
	d="
M1.000003,396.000000 
	C1.000000,353.312439 1.000000,310.624878 1.286770,267.166077 
	C5.818504,272.321533 9.708589,278.795013 17.707638,280.156860 
	C21.705120,280.837433 25.827681,280.783356 30.034422,281.385864 
	C30.523390,282.062805 30.952915,282.364929 31.208036,282.775482 
	C39.425125,295.999176 47.657124,309.213776 55.816177,322.473267 
	C60.666134,330.355072 65.397263,338.310028 70.197502,346.258087 
	C65.391930,351.059143 60.724201,355.535858 56.269573,360.215454 
	C49.064064,367.784790 41.998596,375.487457 34.456741,383.062866 
	C21.659960,380.446106 10.440753,381.136658 2.804687,395.566376 
	C2.613308,395.927979 1.619548,395.864990 1.000003,396.000000 
z"/>
<path fill="#FD8087" opacity="1.000000" stroke="none" 
	d="
M40.790089,126.976746 
	C31.748806,133.415878 21.986197,134.533798 12.524215,128.857666 
	C8.154189,126.236137 5.179720,121.288246 1.286253,117.697556 
	C1.000000,111.645599 1.000000,105.291206 1.000000,98.468399 
	C1.619783,97.863503 2.641096,97.912048 2.801552,97.563873 
	C9.600047,82.811577 27.804768,79.867500 40.678558,89.430161 
	C43.732838,94.597702 46.398941,99.346489 49.037109,104.401108 
	C49.033112,105.115570 49.057053,105.524200 49.003067,106.347885 
	C49.025784,114.632690 45.178890,120.913765 40.790089,126.976746 
z"/>
<path fill="#FD8087" opacity="1.000000" stroke="none" 
	d="
M1.000003,396.468414 
	C1.619548,395.864990 2.613308,395.927979 2.804687,395.566376 
	C10.440753,381.136658 21.659960,380.446106 34.549461,383.390015 
	C44.093697,389.362946 48.795116,397.440094 49.045876,408.372864 
	C49.028900,409.087158 49.047043,409.495880 48.798870,410.149139 
	C46.020550,415.209412 43.508541,420.025208 40.996525,424.840973 
	C35.697659,426.560638 30.488659,429.303497 25.080481,429.778473 
	C15.059929,430.658508 7.660489,425.639587 2.912850,416.770752 
	C2.623127,416.229523 2.027281,415.852142 1.286935,415.699280 
	C1.000000,409.645599 1.000000,403.291199 1.000003,396.468414 
z"/>
<path fill="#FD8088" opacity="1.000000" stroke="none" 
	d="
M29.893665,281.061584 
	C25.827681,280.783356 21.705120,280.837433 17.707638,280.156860 
	C9.708589,278.795013 5.818504,272.321533 1.286770,266.697388 
	C1.000000,260.645599 1.000000,254.291214 1.000000,247.468414 
	C1.498484,246.973541 2.334345,247.118210 2.447048,246.896042 
	C8.001694,235.946198 17.049696,231.727188 29.666420,233.241028 
	C31.724241,234.060150 33.122169,234.586472 34.476379,235.208038 
	C50.838013,242.717667 53.731865,264.143158 39.757927,275.482635 
	C36.865456,277.829834 33.201855,279.226715 29.893665,281.061584 
z"/>
<path fill="#D2CFE9" opacity="1.000000" stroke="none" 
	d="
M442.056946,397.915161 
	C457.169769,397.915161 472.282593,397.915161 487.097626,397.915161 
	C485.399109,394.808228 483.125671,391.863892 482.173340,388.540955 
	C481.343872,385.646790 481.804871,382.344238 485.590088,380.834534 
	C489.456421,379.292450 492.989502,379.484070 495.950165,382.472504 
	C501.530182,388.104767 506.959290,393.886536 512.725586,399.303101 
	C513.000000,403.356903 513.000000,407.713806 513.000000,412.535339 
	C512.364563,413.123932 511.493378,413.023499 511.129517,413.405823 
	C506.462555,418.310242 501.927521,423.340790 497.236633,428.221741 
	C493.379608,432.235046 487.158539,433.283142 484.066467,430.636780 
	C481.251129,428.227295 481.228516,421.817261 484.101501,417.553375 
	C484.810181,416.501648 485.779022,415.625244 487.214508,414.007599 
	C472.023407,414.007599 457.503601,414.007599 442.461670,413.619019 
	C441.978638,408.125336 442.017792,403.020233 442.056946,397.915161 
z"/>
<path fill="#D2CFE9" opacity="1.000000" stroke="none" 
	d="
M513.000000,114.535347 
	C512.495850,115.022980 511.772980,114.836006 511.519684,115.099861 
	C506.144775,120.698212 500.943451,126.468742 495.441864,131.937744 
	C492.474274,134.887772 486.269012,134.786453 483.732086,132.229904 
	C481.071869,129.549149 481.327179,123.142548 484.309021,120.205826 
	C485.460480,119.071838 486.834717,118.164032 488.107422,117.153160 
	C487.921021,116.771355 487.734589,116.389557 487.548157,116.007751 
	C472.693573,116.007751 457.838989,116.007751 442.464539,115.619278 
	C441.982544,110.125900 442.020386,105.021004 442.058228,99.916100 
	C456.816437,99.916100 471.574677,99.916100 486.114166,99.916100 
	C484.769470,96.952965 482.855255,94.018196 482.151093,90.817245 
	C481.465881,87.702148 481.751587,84.222504 485.720215,82.732864 
	C489.547302,81.296349 493.077820,81.500000 496.048615,84.553879 
	C501.548706,90.207855 506.989166,95.919861 512.727234,101.303856 
	C513.000000,105.356903 513.000000,109.713799 513.000000,114.535347 
z"/>
<path fill="#D2CFE9" opacity="1.000000" stroke="none" 
	d="
M513.000000,263.535339 
	C512.253479,264.615143 511.455322,265.177795 510.768768,265.853821 
	C505.565216,270.977631 500.500580,276.249847 495.149109,281.213257 
	C492.155884,283.989441 485.725647,283.598053 483.452209,280.949829 
	C481.092010,278.200531 481.502319,272.131805 484.222900,269.274628 
	C485.212708,268.235107 486.159363,267.154419 488.113312,265.007294 
	C472.250092,265.007294 457.618835,265.007294 442.466431,264.617584 
	C441.982910,259.124390 442.020477,254.020935 442.058075,248.917465 
	C456.948120,248.917465 471.838165,248.917465 486.781769,248.917465 
	C485.065033,245.530273 482.983917,242.647430 482.161041,239.441635 
	C481.403748,236.491394 481.885010,233.210648 485.662201,231.780182 
	C489.304565,230.400787 492.795532,230.354431 495.639099,233.198166 
	C501.341064,238.900452 506.852478,244.793213 512.721313,250.303680 
	C513.000000,254.356903 513.000000,258.713806 513.000000,263.535339 
z"/>
<path fill="#D2CFE9" opacity="1.000000" stroke="none" 
	d="
M413.239990,280.998016 
	C407.508301,290.485077 401.833099,300.006897 396.030426,309.450348 
	C388.968506,320.943146 381.742859,332.336060 374.785034,343.890778 
	C374.239136,344.797333 374.769012,347.053162 375.592133,347.968872 
	C380.981049,353.963745 386.592743,359.758240 392.123413,365.625946 
	C397.539032,371.371643 402.944855,377.126587 408.531708,383.323242 
	C400.107513,389.583160 394.382446,397.032654 394.498657,408.020081 
	C393.588654,408.000427 393.065308,408.095123 392.592682,407.980621 
	C377.239563,404.259399 361.798126,400.848938 346.601257,396.570404 
	C342.254517,395.346619 341.466949,397.679016 340.033051,399.987152 
	C330.593414,415.182159 321.223541,430.420593 311.851959,445.657806 
	C308.823517,450.581818 305.858215,455.544647 302.864044,460.489716 
	C303.150208,460.730225 303.436371,460.970734 303.722534,461.211243 
	C334.129272,444.113983 364.536011,427.016754 395.108276,410.244019 
	C397.846161,415.321777 400.418518,420.074982 402.990845,424.828217 
	C392.787842,430.296204 382.520111,435.647491 372.398804,441.262756 
	C360.711792,447.746704 349.158600,454.471680 337.538544,461.076569 
	C325.920471,467.680298 314.291565,474.264893 302.043182,480.800598 
	C298.556122,472.407440 293.938232,465.689850 285.085938,462.764313 
	C284.230957,462.481750 283.572968,461.602905 282.973389,460.673218 
	C283.686676,459.746460 284.373352,459.223145 284.795319,458.537079 
	C292.878601,445.394348 300.924927,432.228943 308.991394,419.075897 
	C314.624451,409.890625 320.276276,400.716858 326.044220,391.335449 
	C316.431427,389.106445 307.217224,386.969879 298.033936,384.467834 
	C299.401123,379.040955 300.737335,373.979492 302.479492,368.955566 
	C313.581573,371.586487 324.277740,374.179871 334.994537,376.778259 
	C341.025391,367.085632 346.854706,357.716858 352.647308,348.407074 
	C347.795441,343.140656 342.944122,337.874878 338.183990,332.708038 
	C325.478943,343.131287 313.270050,353.147461 300.749023,363.002502 
	C296.999603,358.617798 293.562347,354.394196 290.426666,349.999084 
	C291.777527,349.091400 292.883301,348.423431 293.867401,347.608490 
	C303.655579,339.502472 313.215393,331.098389 323.321533,323.412018 
	C326.440247,321.040070 326.545288,320.076202 324.097321,317.575317 
	C313.438873,306.686371 302.846985,295.731812 292.299103,284.735626 
	C290.632812,282.998566 289.316742,280.925629 288.052856,278.741455 
	C292.122528,274.986023 295.978058,271.497101 299.973633,268.320007 
	C313.343842,282.584351 326.574036,296.536865 339.693115,310.372162 
	C358.492889,295.159576 376.680511,280.442322 395.538971,265.182251 
	C363.230377,265.182251 332.134583,265.182251 300.931183,264.712189 
	C300.894836,259.100342 300.966064,253.958542 301.496979,248.899933 
	C332.816772,248.983124 363.676849,248.983124 395.758057,248.983124 
	C374.595856,231.856888 354.454803,215.557053 334.365540,199.299133 
	C321.487152,212.900833 308.660278,226.448135 295.486816,239.975403 
	C290.077148,237.601944 285.014038,235.248520 280.072449,232.584930 
	C293.836975,217.920761 307.479980,203.566742 321.536530,188.777664 
	C310.912964,180.344299 300.515533,172.090439 290.258698,163.545837 
	C293.953186,159.115494 297.507050,154.975906 301.383362,150.958664 
	C312.003967,159.673386 322.302124,168.265747 332.740204,176.974838 
	C338.342926,171.118271 343.776978,165.438004 349.149170,159.822418 
	C344.221283,151.984955 339.615814,144.660324 334.968567,137.269226 
	C323.854736,139.908813 312.964172,142.495346 301.814545,144.772339 
	C300.370972,139.364059 299.186432,134.265320 298.414307,129.091217 
	C307.764160,126.920525 316.701691,124.825218 325.985748,122.648666 
	C324.751038,120.582802 323.781494,118.915512 322.769409,117.274475 
	C315.517914,105.516739 308.277527,93.752098 300.994263,82.014069 
	C294.986847,72.332306 288.925415,62.684059 283.053467,52.706654 
	C287.829987,49.062260 292.835358,46.144093 296.904572,42.248100 
	C299.358215,39.898853 300.356323,36.029335 302.008453,32.842957 
	C322.396637,44.217628 342.797241,55.570049 363.168488,66.974976 
	C376.220093,74.281975 389.228333,81.666405 402.571899,89.427635 
	C400.238861,94.585945 397.589905,99.332748 394.611389,103.946129 
	C364.049927,86.768677 333.818024,69.724655 303.586121,52.680634 
	C303.348419,53.007355 303.110748,53.334076 302.873077,53.660797 
	C310.188629,65.546684 317.504059,77.432640 324.819733,89.318443 
	C329.879639,97.539330 334.881042,105.797218 340.044647,113.952431 
	C341.217041,115.803993 341.797302,118.811546 345.196747,117.952995 
	C352.514923,116.104767 359.816345,114.187027 367.154907,112.423653 
	C376.390381,110.204453 385.656067,108.111053 394.942657,106.398026 
	C395.692871,110.509575 395.913879,114.382370 397.268372,117.806854 
	C398.555298,121.060638 401.027740,123.845528 402.978882,126.836601 
	C401.746490,128.294144 400.588196,129.822739 399.269836,131.197891 
	C389.556732,141.329544 379.811646,151.430511 369.748688,161.881729 
	C374.859619,170.102921 380.043030,178.350525 385.136444,186.653320 
	C394.458099,201.848495 403.726593,217.076248 412.911163,232.927887 
	C411.465332,234.214645 410.122528,234.857681 408.786346,235.514175 
	C393.209320,243.167603 390.150055,262.617706 402.902832,274.376648 
	C405.865112,277.108063 409.769226,278.818024 413.239990,280.998016 
M391.162750,390.603668 
	C391.674835,390.725677 392.186920,390.847687 392.698975,390.969727 
	C392.945435,390.655457 393.191864,390.341187 393.438324,390.026947 
	C392.871094,389.809021 392.303894,389.591125 391.297974,388.867737 
	C382.422546,379.542603 373.547089,370.217499 364.433838,360.642517 
	C360.169312,367.594757 356.175964,374.104919 352.007477,380.900574 
	C355.664978,381.875763 358.897369,382.841980 362.178986,383.592987 
	C371.765472,385.786743 381.371643,387.894653 391.162750,390.603668 
M347.970978,184.547760 
	C347.376801,185.596512 346.782593,186.645264 346.209869,187.656082 
	C358.350006,197.428680 370.317719,207.062469 382.285431,216.696274 
	C382.704773,216.364044 383.124115,216.031815 383.543457,215.699585 
	C375.123810,202.047211 366.704132,188.394821 357.843170,174.026886 
	C354.362732,177.735397 351.409607,180.882050 347.970978,184.547760 
M355.997437,318.503296 
	C354.339783,319.770294 352.682129,321.037292 350.935883,322.372009 
	C354.547302,325.975067 357.961975,329.381836 361.930939,333.341614 
	C369.227692,321.513947 376.397125,309.892639 383.566589,298.271301 
	C383.151367,297.954193 382.736115,297.637085 382.320892,297.319946 
	C373.717590,304.210724 365.114319,311.101501 355.997437,318.503296 
M365.279083,129.950958 
	C361.657837,130.697067 358.013153,131.347977 354.425476,132.230621 
	C352.707977,132.653168 352.089905,133.909760 353.175720,135.553055 
	C355.706482,139.383072 358.266449,143.193771 360.814575,147.012299 
	C360.244354,146.367630 359.674133,145.722977 359.103882,145.078308 
	C366.480499,139.022202 373.857117,132.966095 381.233734,126.909988 
	C380.950775,126.577675 380.667816,126.245361 380.384827,125.913055 
	C375.590118,127.108551 370.795380,128.304047 365.279083,129.950958 
M384.275818,297.004730 
	C384.387390,296.503479 384.498932,296.002197 384.610474,295.500946 
	C384.265839,295.875488 383.921204,296.250031 384.275818,297.004730 
M384.890808,217.448746 
	C384.489105,217.558823 384.087433,217.668900 383.685730,217.778992 
	C384.099182,217.932007 384.512665,218.085037 384.890808,217.448746 
z"/>
<path fill="#D2CFE9" opacity="1.000000" stroke="none" 
	d="
M30.034420,281.385864 
	C33.201855,279.226715 36.865456,277.829834 39.757927,275.482635 
	C53.731865,264.143158 50.838013,242.717667 34.476379,235.208038 
	C33.122169,234.586472 31.724241,234.060150 30.120411,233.213104 
	C35.934669,223.243332 41.982006,213.554321 48.013912,203.855713 
	C55.901711,191.173050 63.719467,178.446228 71.703613,165.824585 
	C73.444443,163.072617 73.731972,161.136978 71.180473,158.572067 
	C61.032021,148.370285 51.105171,137.948059 40.943169,127.292107 
	C45.178890,120.913765 49.025784,114.632690 49.415359,106.378372 
	C65.548622,109.787888 81.228897,113.438812 96.804916,117.490524 
	C100.126587,118.354584 101.496132,117.384270 103.068451,114.808228 
	C111.296745,101.327225 119.673843,87.937088 127.987427,74.508072 
	C132.310425,67.525101 136.609116,60.527081 140.918777,53.535854 
	C140.640076,53.260540 140.361359,52.985226 140.082642,52.709911 
	C109.743446,69.838364 79.404243,86.966820 49.065044,104.095276 
	C46.398941,99.346489 43.732838,94.597702 41.042984,89.506454 
	C50.493408,84.071220 60.034569,79.098412 69.424751,73.855202 
	C81.084480,67.344742 92.593689,60.565357 104.215073,53.985432 
	C116.529045,47.013367 128.898376,40.139072 141.845734,33.319038 
	C143.628357,36.103992 144.763199,38.813118 145.998230,41.475780 
	C148.982193,47.909054 155.787811,49.326321 160.676819,52.990921 
	C152.483292,66.019356 144.636551,78.897804 136.745987,91.749344 
	C130.459808,101.987801 124.120155,112.193428 117.723122,122.544891 
	C119.454910,122.931389 120.711632,123.209602 121.967300,123.492462 
	C129.957901,125.292427 137.948288,127.093430 145.914413,129.266357 
	C144.574387,134.794952 143.258682,139.951294 141.538269,145.058426 
	C130.245407,142.387711 119.357246,139.766205 108.626083,137.182495 
	C104.543739,143.858871 100.819679,150.602661 96.406815,156.860733 
	C94.508881,159.552261 95.118034,160.760162 97.053024,162.580536 
	C101.808289,167.054153 106.459091,171.638824 111.320778,176.342194 
	C121.446480,168.200775 132.177536,159.572632 143.186157,151.147125 
	C146.646301,155.511124 149.828888,159.672485 152.694214,163.971390 
	C142.458344,172.362122 132.539719,180.615311 122.414902,189.040085 
	C136.639832,204.021225 150.363632,218.474609 163.736206,233.086121 
	C158.206711,235.520630 153.028442,237.796997 147.525223,239.956177 
	C145.330933,237.589432 143.590454,235.215622 141.565781,233.115845 
	C137.179581,228.566971 132.556442,224.245499 128.197418,219.671677 
	C121.853241,213.014862 115.656448,206.217575 109.291687,199.367035 
	C88.770897,215.965469 68.907028,232.032562 48.064423,248.891312 
	C80.741226,248.891312 111.843040,248.891312 142.962189,249.324524 
	C142.968460,254.875549 142.957397,259.993378 142.483459,265.060730 
	C111.169037,265.010223 80.317474,265.010223 47.887028,265.010223 
	C67.409950,280.770905 85.700279,295.536499 104.102921,310.392792 
	C117.657280,296.050751 130.912003,282.025757 144.441437,268.179199 
	C148.500122,272.195465 152.284088,276.033295 155.739868,279.981079 
	C142.678482,293.607178 129.945312,307.123352 117.041183,320.820984 
	C129.072968,330.635223 141.043869,340.399780 152.939499,350.484375 
	C149.545700,354.888062 146.227158,358.971771 142.590286,362.931122 
	C130.043701,352.828705 117.815430,342.850586 105.449188,332.759918 
	C100.258713,338.300171 95.563004,343.312286 90.959450,348.226074 
	C97.058853,358.067474 102.884789,367.467621 108.649651,376.769226 
	C119.742134,374.144867 130.842529,371.518646 141.962128,369.326538 
	C143.300751,374.876068 144.620178,379.991455 145.527161,385.057861 
	C136.098053,387.119110 127.081375,389.229370 117.613068,391.445312 
	C132.239243,414.943542 146.624695,438.055023 160.771881,461.408020 
	C154.676575,464.314880 148.721985,466.877991 145.593903,473.078827 
	C144.276093,475.691132 143.123672,478.386902 141.896057,481.044708 
	C120.795189,469.362549 99.664879,457.733124 78.604668,445.978119 
	C66.255814,439.085480 54.018585,431.992798 41.363838,424.915527 
	C43.508541,420.025208 46.020550,415.209412 49.125786,410.289856 
	C79.877380,427.252808 110.035736,444.319580 141.027084,461.857727 
	C140.376785,459.904297 140.266617,459.104767 139.878876,458.476532 
	C127.443062,438.327423 115.030205,418.163452 102.398712,398.137451 
	C101.635155,396.926880 98.918716,396.025391 97.418343,396.359680 
	C90.361092,397.932098 83.444878,400.124878 76.414658,401.834381 
	C67.335091,404.042175 58.195011,406.001160 49.080994,408.067291 
	C48.795116,397.440094 44.093697,389.362946 34.966713,383.460938 
	C41.998596,375.487457 49.064064,367.784790 56.269573,360.215454 
	C60.724201,355.535858 65.391930,351.059143 70.197502,346.258087 
	C65.397263,338.310028 60.666134,330.355072 55.816177,322.473267 
	C47.657124,309.213776 39.425125,295.999176 31.208036,282.775482 
	C30.952915,282.364929 30.523390,282.062805 30.034420,281.385864 
M53.905155,390.012146 
	C66.542206,387.086212 79.179260,384.160278 92.018166,381.187592 
	C87.520851,374.035980 83.368217,367.432465 79.082825,360.617828 
	C69.922264,370.440796 61.088341,379.913513 51.812767,389.771515 
	C51.668980,390.108887 51.525192,390.446228 51.381397,390.783600 
	C51.947010,390.550995 52.512623,390.318420 53.905155,390.012146 
M79.463478,184.035950 
	C72.676598,195.197891 65.889717,206.359833 59.102840,217.521774 
	C59.326683,217.716309 59.550526,217.910843 59.774368,218.105377 
	C72.420837,207.879684 85.067299,197.653992 97.701492,187.438217 
	C93.850876,183.198090 89.939758,178.891342 85.714256,174.238403 
	C83.542206,177.758713 81.769569,180.631683 79.463478,184.035950 
M64.026176,304.526611 
	C69.891853,314.059692 75.757538,323.592804 81.692413,333.238373 
	C85.505768,329.397461 89.053535,325.824036 92.499222,322.353455 
	C81.653038,313.587372 70.717239,304.748871 59.781437,295.910370 
	C59.570869,296.067902 59.360306,296.225464 59.149742,296.383026 
	C60.599949,298.918701 62.050156,301.454346 64.026176,304.526611 
M68.549629,127.005501 
	C66.848152,126.667023 65.146675,126.328545 62.723900,125.846565 
	C69.582748,133.244186 75.948868,140.110367 82.688179,147.379059 
	C85.852829,142.478119 88.810432,137.897842 91.872536,133.155716 
	C84.271835,131.095901 76.821938,129.076981 68.549629,127.005501 
z"/>
<path fill="#C8EFFE" opacity="1.000000" stroke="none" 
	d="
M161.004715,52.829330 
	C155.787811,49.326321 148.982193,47.909054 145.998230,41.475780 
	C144.763199,38.813118 143.628357,36.103992 142.174133,33.183750 
	C141.637695,24.923290 142.558334,17.616932 148.910248,11.379985 
	C161.154266,-0.642423 180.259171,3.456336 187.904221,17.505150 
	C188.359390,18.341572 188.637604,19.274284 189.023849,20.950623 
	C189.052429,26.862593 189.055313,31.986130 188.942963,37.408596 
	C188.578323,38.454479 188.328934,39.201431 187.771271,40.099442 
	C183.957611,43.857609 180.452225,47.464722 176.542694,51.039623 
	C171.093964,51.614716 166.049332,52.222023 161.004715,52.829330 
z"/>
<path fill="#FFD15B" opacity="1.000000" stroke="none" 
	d="
M302.004883,32.403465 
	C300.356323,36.029335 299.358215,39.898853 296.904572,42.248100 
	C292.835358,46.144093 287.829987,49.062260 282.606537,52.692142 
	C276.490601,51.947525 270.987061,50.903114 265.280029,49.572220 
	C261.724243,45.458027 258.372009,41.630314 254.986969,37.610096 
	C254.954208,37.417591 254.879105,37.034325 254.898621,36.614460 
	C254.882782,31.135704 254.847427,26.076813 254.812073,21.017921 
	C256.401611,10.559661 271.026642,0.771870 284.708923,5.284524 
	C294.521454,8.520878 302.883484,16.959578 302.004883,32.403465 
z"/>
<path fill="#6FD7A3" opacity="1.000000" stroke="none" 
	d="
M394.940979,104.079559 
	C397.589905,99.332748 400.238861,94.585945 402.937927,89.505188 
	C413.236938,82.507011 423.706787,81.238876 433.759918,89.102531 
	C437.062744,91.686073 439.140961,95.835213 441.918701,99.592262 
	C442.020386,105.021004 441.982544,110.125900 442.000916,115.658173 
	C438.861176,123.331924 434.355011,129.410233 426.190216,131.226944 
	C418.220062,133.000351 410.343781,132.944305 403.306580,126.987656 
	C401.027740,123.845528 398.555298,121.060638 397.268372,117.806854 
	C395.913879,114.382370 395.692871,110.509575 394.981995,106.085037 
	C394.971924,104.918114 394.956451,104.498840 394.940979,104.079559 
z"/>
<path fill="#D2CFE9" opacity="1.000000" stroke="none" 
	d="
M254.358582,21.011070 
	C254.847427,26.076813 254.882782,31.135704 254.440338,36.598900 
	C232.327744,37.038692 210.692978,37.074181 189.058197,37.109665 
	C189.055313,31.986130 189.052429,26.862593 189.055252,21.315495 
	C210.675659,20.929365 232.290375,20.966793 254.358582,21.011070 
z"/>
<path fill="#C8EFFE" opacity="1.000000" stroke="none" 
	d="
M141.943634,481.498108 
	C143.123672,478.386902 144.276093,475.691132 145.593903,473.078827 
	C148.721985,466.877991 154.676575,464.314880 161.221237,461.331848 
	C166.918793,461.656494 171.928741,462.298798 177.094284,463.245667 
	C180.858002,467.051239 184.466141,470.552246 188.035187,474.369598 
	C188.350708,475.421265 188.705353,476.156616 189.044830,477.322937 
	C189.040176,482.871765 189.050720,487.989594 189.061249,493.107422 
	C185.748810,504.347931 174.924026,510.057831 165.724884,509.845734 
	C154.915695,509.596527 145.602081,502.864441 142.465546,491.827423 
	C141.588120,488.739868 142.110809,485.254425 141.943634,481.498108 
z"/>
<path fill="#FFD15B" opacity="1.000000" stroke="none" 
	d="
M282.823547,461.000854 
	C283.572968,461.602905 284.230957,462.481750 285.085938,462.764313 
	C293.938232,465.689850 298.556122,472.407440 301.713745,480.950012 
	C302.522919,490.060089 300.504974,498.064728 293.403473,504.049866 
	C280.029999,515.321045 259.316864,509.064606 254.892792,492.946167 
	C254.819870,487.106140 254.833572,482.048798 254.915710,476.657349 
	C255.023575,475.871643 255.063019,475.419983 255.417603,474.860046 
	C259.574127,470.853119 263.415497,466.954498 267.642456,463.016693 
	C272.959869,462.318634 277.891693,461.659729 282.823547,461.000854 
z"/>
<path fill="#6FD7A3" opacity="1.000000" stroke="none" 
	d="
M394.908966,408.036957 
	C394.382446,397.032654 400.107513,389.583160 408.840698,383.466888 
	C417.226959,381.584137 425.696564,379.945679 432.745758,386.088745 
	C436.301941,389.187836 438.799988,393.501190 441.916687,397.590332 
	C442.017792,403.020233 441.978638,408.125336 441.997955,413.657715 
	C439.220734,419.654144 436.175934,424.871460 429.976532,427.619324 
	C420.625946,431.763977 411.975098,430.756409 403.320374,424.986176 
	C400.418518,420.074982 397.846161,415.321777 395.132568,409.930054 
	C394.963837,408.873352 394.936401,408.455139 394.908966,408.036957 
z"/>
<path fill="#D2CFE9" opacity="1.000000" stroke="none" 
	d="
M254.847290,476.991425 
	C254.833572,482.048798 254.819870,487.106140 254.808563,492.571747 
	C233.202332,492.990112 211.593735,493.000244 189.523193,493.058899 
	C189.050720,487.989594 189.040176,482.871765 189.506775,477.371826 
	C211.605011,476.990295 233.226151,476.990875 254.847290,476.991425 
z"/>
<path fill="#70D7A3" opacity="1.000000" stroke="none" 
	d="
M413.680786,281.008148 
	C409.769226,278.818024 405.865112,277.108063 402.902832,274.376648 
	C390.150055,262.617706 393.209320,243.167603 408.786346,235.514175 
	C410.122528,234.857681 411.465332,234.214645 413.019531,233.282242 
	C422.076599,232.533524 430.674683,233.048126 436.914246,240.519379 
	C438.850952,242.838364 440.173767,245.670044 441.917847,248.592224 
	C442.020477,254.020935 441.982910,259.124390 442.002899,264.654907 
	C436.969147,277.795166 427.085693,282.107147 413.680786,281.008148 
z"/>
<path fill="#000000" opacity="1.000000" stroke="none" 
	d="
M49.037109,104.401108 
	C79.404243,86.966820 109.743446,69.838364 140.082642,52.709911 
	C140.361359,52.985226 140.640076,53.260540 140.918777,53.535854 
	C136.609116,60.527081 132.310425,67.525101 127.987427,74.508072 
	C119.673843,87.937088 111.296745,101.327225 103.068451,114.808228 
	C101.496132,117.384270 100.126587,118.354584 96.804916,117.490524 
	C81.228897,113.438812 65.548622,109.787888 49.493286,105.963333 
	C49.057053,105.524200 49.033112,105.115570 49.037109,104.401108 
z"/>
<path fill="#000000" opacity="1.000000" stroke="none" 
	d="
M49.045876,408.372864 
	C58.195011,406.001160 67.335091,404.042175 76.414658,401.834381 
	C83.444878,400.124878 90.361092,397.932098 97.418343,396.359680 
	C98.918716,396.025391 101.635155,396.926880 102.398712,398.137451 
	C115.030205,418.163452 127.443062,438.327423 139.878876,458.476532 
	C140.266617,459.104767 140.376785,459.904297 141.027084,461.857727 
	C110.035736,444.319580 79.877380,427.252808 49.392097,410.045349 
	C49.047043,409.495880 49.028900,409.087158 49.045876,408.372864 
z"/>
<path fill="#000000" opacity="1.000000" stroke="none" 
	d="
M287.838745,279.007965 
	C289.316742,280.925629 290.632812,282.998566 292.299103,284.735626 
	C302.846985,295.731812 313.438873,306.686371 324.097321,317.575317 
	C326.545288,320.076202 326.440247,321.040070 323.321533,323.412018 
	C313.215393,331.098389 303.655579,339.502472 293.867401,347.608490 
	C292.883301,348.423431 291.777527,349.091400 290.058624,349.856873 
	C282.148407,345.852234 274.742859,346.178925 267.082886,348.733948 
	C255.826706,336.964813 244.728836,325.510284 233.775238,314.204651 
	C245.193649,302.173676 256.207916,290.568512 267.554993,279.158691 
	C274.583832,281.875916 281.237885,281.975250 287.838745,279.007965 
z"/>
<path fill="#000000" opacity="1.000000" stroke="none" 
	d="
M265.483551,49.858696 
	C270.987061,50.903114 276.490601,51.947525 282.441040,53.006451 
	C288.925415,62.684059 294.986847,72.332306 300.994263,82.014069 
	C308.277527,93.752098 315.517914,105.516739 322.769409,117.274475 
	C323.781494,118.915512 324.751038,120.582802 325.985748,122.648666 
	C316.701691,124.825218 307.764160,126.920525 298.096832,128.934601 
	C292.497192,118.866661 276.541718,116.284370 267.013275,120.671638 
	C255.580048,108.572372 244.287933,96.791695 232.766266,84.771538 
	C241.718033,75.473709 250.656860,66.247795 259.515625,56.945641 
	C261.641479,54.713371 263.501343,52.227779 265.483551,49.858696 
z"/>
<path fill="#000000" opacity="1.000000" stroke="none" 
	d="
M282.973389,460.673187 
	C277.891693,461.659729 272.959869,462.318634 267.479706,462.702942 
	C255.678223,451.137268 244.425034,439.846161 233.402710,428.786682 
	C245.221283,416.259033 256.188690,404.633636 267.506409,393.169312 
	C277.715851,398.431488 291.069580,394.667633 298.003021,384.833313 
	C307.217224,386.969879 316.431427,389.106445 326.044220,391.335449 
	C320.276276,400.716858 314.624451,409.890625 308.991394,419.075897 
	C300.924927,432.228943 292.878601,445.394348 284.795319,458.537079 
	C284.373352,459.223145 283.686676,459.746460 282.973389,460.673187 
z"/>
<path fill="#000000" opacity="1.000000" stroke="none" 
	d="
M290.118103,163.836578 
	C300.515533,172.090439 310.912964,180.344299 321.536530,188.777664 
	C307.479980,203.566742 293.836975,217.920761 279.628967,232.631683 
	C275.114166,233.669159 271.164337,234.349716 267.062378,234.715271 
	C255.858994,222.903931 244.807800,211.407593 233.765457,199.920456 
	C245.112213,188.070419 256.180206,176.511475 267.634888,164.988312 
	C275.585419,168.319687 282.941101,167.740326 290.118103,163.836578 
z"/>
<path fill="#000000" opacity="1.000000" stroke="none" 
	d="
M295.833374,239.995422 
	C308.660278,226.448135 321.487152,212.900833 334.365540,199.299133 
	C354.454803,215.557053 374.595856,231.856888 395.758057,248.983124 
	C363.676849,248.983124 332.816772,248.983124 301.365906,248.580338 
	C299.127899,245.450165 297.480652,242.722794 295.833374,239.995422 
z"/>
<path fill="#000000" opacity="1.000000" stroke="none" 
	d="
M301.038757,265.182251 
	C332.134583,265.182251 363.230377,265.182251 395.538971,265.182251 
	C376.680511,280.442322 358.492889,295.159576 339.693115,310.372162 
	C326.574036,296.536865 313.343842,282.584351 300.049683,268.010651 
	C300.336731,266.653717 300.687744,265.917999 301.038757,265.182251 
z"/>
<path fill="#000000" opacity="1.000000" stroke="none" 
	d="
M394.498657,408.020081 
	C394.936401,408.455139 394.963837,408.873352 394.967041,409.605530 
	C364.536011,427.016754 334.129272,444.113983 303.722534,461.211243 
	C303.436371,460.970734 303.150208,460.730225 302.864044,460.489716 
	C305.858215,455.544647 308.823517,450.581818 311.851959,445.657806 
	C321.223541,430.420593 330.593414,415.182159 340.033051,399.987152 
	C341.466949,397.679016 342.254517,395.346619 346.601257,396.570404 
	C361.798126,400.848938 377.239563,404.259399 392.592682,407.980621 
	C393.065308,408.095123 393.588654,408.000427 394.498657,408.020081 
z"/>
<path fill="#000000" opacity="1.000000" stroke="none" 
	d="
M394.611389,103.946129 
	C394.956451,104.498840 394.971924,104.918114 394.948059,105.650383 
	C385.656067,108.111053 376.390381,110.204453 367.154907,112.423653 
	C359.816345,114.187027 352.514923,116.104767 345.196747,117.952995 
	C341.797302,118.811546 341.217041,115.803993 340.044647,113.952431 
	C334.881042,105.797218 329.879639,97.539330 324.819733,89.318443 
	C317.504059,77.432640 310.188629,65.546684 302.873077,53.660797 
	C303.110748,53.334076 303.348419,53.007355 303.586121,52.680634 
	C333.818024,69.724655 364.049927,86.768677 394.611389,103.946129 
z"/>
<path fill="#FFD15C" opacity="1.000000" stroke="none" 
	d="
M290.258698,163.545837 
	C282.941101,167.740326 275.585419,168.319687 267.447296,164.699509 
	C263.253998,160.852997 259.634949,157.331055 255.890961,153.521301 
	C255.458984,152.491364 255.151901,151.749268 254.873383,150.591400 
	C254.875519,145.120117 254.849106,140.064590 254.901627,134.636841 
	C255.042603,133.508728 255.104645,132.752869 255.493408,131.931473 
	C259.598236,128.240707 263.376312,124.615471 267.154388,120.990234 
	C276.541718,116.284370 292.497192,118.866661 297.684448,129.009979 
	C299.186432,134.265320 300.370972,139.364059 301.781616,145.149582 
	C301.692139,147.503021 301.376526,149.169678 301.060913,150.836304 
	C297.507050,154.975906 293.953186,159.115494 290.258698,163.545837 
z"/>
<path fill="#FFD15C" opacity="1.000000" stroke="none" 
	d="
M298.033936,384.467834 
	C291.069580,394.667633 277.715851,398.431488 267.288513,392.906189 
	C263.127716,388.955200 259.535065,385.428284 255.865341,381.588562 
	C255.467087,380.514313 255.145889,379.752869 254.827301,378.580627 
	C254.835083,373.110626 254.840240,368.051392 254.915710,362.685242 
	C255.328430,361.648926 255.670853,360.919525 256.284851,359.982605 
	C260.118011,356.199585 263.679565,352.624084 267.241150,349.048584 
	C274.742859,346.178925 282.148407,345.852234 289.757080,350.028381 
	C293.562347,354.394196 296.999603,358.617798 300.722412,363.377991 
	C301.363159,365.582397 301.718353,367.250244 302.073578,368.918060 
	C300.737335,373.979492 299.401123,379.040955 298.033936,384.467834 
z"/>
<path fill="#FFD15C" opacity="1.000000" stroke="none" 
	d="
M300.931183,264.712189 
	C300.687744,265.917999 300.336731,266.653717 299.909637,267.698792 
	C295.978058,271.497101 292.122528,274.986023 288.052856,278.741455 
	C281.237885,281.975250 274.583832,281.875916 267.342682,278.889160 
	C263.189392,274.904785 259.581146,271.385254 255.875931,267.561981 
	C255.463547,266.504486 255.148163,265.750702 254.839661,264.585388 
	C254.844727,259.114532 254.842926,254.055267 254.913528,248.685577 
	C255.314453,247.628082 255.642975,246.880966 256.240051,245.924255 
	C260.077271,242.153183 263.645905,238.591736 267.214539,235.030273 
	C271.164337,234.349716 275.114166,233.669159 279.507446,232.941849 
	C285.014038,235.248520 290.077148,237.601944 295.486816,239.975403 
	C297.480652,242.722794 299.127899,245.450165 300.906189,248.497147 
	C300.966064,253.958542 300.894836,259.100342 300.931183,264.712189 
z"/>
<path fill="#000000" opacity="1.000000" stroke="none" 
	d="
M302.479492,368.955566 
	C301.718353,367.250244 301.363159,365.582397 301.034546,363.539124 
	C313.270050,353.147461 325.478943,343.131287 338.183990,332.708038 
	C342.944122,337.874878 347.795441,343.140656 352.647308,348.407074 
	C346.854706,357.716858 341.025391,367.085632 334.994537,376.778259 
	C324.277740,374.179871 313.581573,371.586487 302.479492,368.955566 
z"/>
<path fill="#000000" opacity="1.000000" stroke="none" 
	d="
M301.383362,150.958679 
	C301.376526,149.169678 301.692139,147.503021 302.040649,145.459137 
	C312.964172,142.495346 323.854736,139.908813 334.968567,137.269226 
	C339.615814,144.660324 344.221283,151.984955 349.149170,159.822418 
	C343.776978,165.438004 338.342926,171.118271 332.740204,176.974838 
	C322.302124,168.265747 312.003967,159.673386 301.383362,150.958679 
z"/>
<path fill="#000000" opacity="1.000000" stroke="none" 
	d="
M390.970093,390.036224 
	C381.371643,387.894653 371.765472,385.786743 362.178986,383.592987 
	C358.897369,382.841980 355.664978,381.875763 352.007477,380.900574 
	C356.175964,374.104919 360.169312,367.594757 364.433838,360.642517 
	C373.547089,370.217499 382.422546,379.542603 391.319458,389.278992 
	C391.217285,389.805603 391.093689,389.920898 390.970093,390.036224 
z"/>
<path fill="#000000" opacity="1.000000" stroke="none" 
	d="
M348.213745,184.288223 
	C351.409607,180.882050 354.362732,177.735397 357.843170,174.026886 
	C366.704132,188.394821 375.123810,202.047211 383.543457,215.699585 
	C383.124115,216.031815 382.704773,216.364044 382.285431,216.696274 
	C370.317719,207.062469 358.350006,197.428680 346.209869,187.656082 
	C346.782593,186.645264 347.376801,185.596512 348.213745,184.288223 
z"/>
<path fill="#000000" opacity="1.000000" stroke="none" 
	d="
M356.254211,318.247803 
	C365.114319,311.101501 373.717590,304.210724 382.320892,297.319946 
	C382.736115,297.637085 383.151367,297.954193 383.566589,298.271301 
	C376.397125,309.892639 369.227692,321.513947 361.930939,333.341614 
	C357.961975,329.381836 354.547302,325.975067 350.935883,322.372009 
	C352.682129,321.037292 354.339783,319.770294 356.254211,318.247803 
z"/>
<path fill="#000000" opacity="1.000000" stroke="none" 
	d="
M365.639893,129.725250 
	C370.795380,128.304047 375.590118,127.108551 380.384827,125.913055 
	C380.667816,126.245361 380.950775,126.577675 381.233734,126.909988 
	C373.857117,132.966095 366.480499,139.022202 359.103882,145.078308 
	C359.674133,145.722977 360.244354,146.367630 360.814575,147.012299 
	C358.266449,143.193771 355.706482,139.383072 353.175720,135.553055 
	C352.089905,133.909760 352.707977,132.653168 354.425476,132.230621 
	C358.013153,131.347977 361.657837,130.697067 365.639893,129.725250 
z"/>
<path fill="#000000" opacity="1.000000" stroke="none" 
	d="
M391.538788,389.531738 
	C392.303894,389.591125 392.871094,389.809021 393.438324,390.026947 
	C393.191864,390.341187 392.945435,390.655457 392.698975,390.969727 
	C392.186920,390.847687 391.674835,390.725677 391.066406,390.319946 
	C391.093689,389.920898 391.217285,389.805603 391.538788,389.531738 
z"/>
<path fill="#000000" opacity="1.000000" stroke="none" 
	d="
M383.926178,296.814667 
	C383.921204,296.250031 384.265839,295.875488 384.610474,295.500946 
	C384.498932,296.002197 384.387390,296.503479 383.926178,296.814667 
z"/>
<path fill="#000000" opacity="1.000000" stroke="none" 
	d="
M384.908447,217.843414 
	C384.512665,218.085037 384.099182,217.932007 383.685730,217.778992 
	C384.087433,217.668900 384.489105,217.558823 384.908447,217.843414 
z"/>
<path fill="#000000" opacity="1.000000" stroke="none" 
	d="
M153.014755,350.164368 
	C141.043869,340.399780 129.072968,330.635223 117.041183,320.820984 
	C129.945312,307.123352 142.678482,293.607178 156.163559,280.051636 
	C163.572784,280.054413 170.230118,280.096588 177.009079,280.453796 
	C188.065155,291.875000 198.999603,302.981110 209.851700,314.003601 
	C198.889847,325.637756 187.915085,337.285645 176.539581,348.963196 
	C168.232376,345.466187 160.560089,346.562164 153.014755,350.164368 
z"/>
<path fill="#000000" opacity="1.000000" stroke="none" 
	d="
M176.938690,462.941132 
	C171.928741,462.298798 166.918793,461.656494 161.459473,461.090332 
	C146.624695,438.055023 132.239243,414.943542 117.613068,391.445312 
	C127.081375,389.229370 136.098053,387.119110 145.653519,385.369354 
	C152.122238,393.285095 159.959717,396.083923 169.345001,394.996002 
	C171.880951,394.702057 174.411209,394.359009 177.054230,394.358917 
	C188.186783,405.711945 199.209183,416.744537 210.252457,427.798035 
	C198.966644,439.703583 187.952667,451.322357 176.938690,462.941132 
z"/>
<path fill="#000000" opacity="1.000000" stroke="none" 
	d="
M160.676819,52.990921 
	C166.049332,52.222023 171.093964,51.614716 176.658600,51.355820 
	C187.818466,62.743778 198.458313,73.783340 209.507385,85.247490 
	C198.257477,96.974220 187.132599,108.570618 175.581024,120.089981 
	C163.736084,117.447762 153.378693,118.372292 145.938736,128.894089 
	C137.948288,127.093430 129.957901,125.292427 121.967300,123.492462 
	C120.711632,123.209602 119.454910,122.931389 117.723122,122.544891 
	C124.120155,112.193428 130.459808,101.987801 136.745987,91.749344 
	C144.636551,78.897804 152.483292,66.019356 160.676819,52.990921 
z"/>
<path fill="#000000" opacity="1.000000" stroke="none" 
	d="
M164.087448,232.927979 
	C150.363632,218.474609 136.639832,204.021225 122.414902,189.040085 
	C132.539719,180.615311 142.458344,172.362122 153.076447,164.051025 
	C161.318497,168.222809 169.079468,167.754471 177.060913,165.387177 
	C188.136002,177.140900 199.093597,188.577515 210.943008,200.944946 
	C199.537811,211.968628 188.212677,222.914932 176.465729,233.915939 
	C172.058426,233.623093 168.072937,233.275543 164.087448,232.927979 
z"/>
<path fill="#000000" opacity="1.000000" stroke="none" 
	d="
M142.944855,248.891312 
	C111.843040,248.891312 80.741226,248.891312 48.064423,248.891312 
	C68.907028,232.032562 88.770897,215.965469 109.291687,199.367035 
	C115.656448,206.217575 121.853241,213.014862 128.197418,219.671677 
	C132.556442,224.245499 137.179581,228.566971 141.565781,233.115845 
	C143.590454,235.215622 145.330933,237.589432 147.481796,240.296295 
	C146.157166,243.466156 144.551010,246.178741 142.944855,248.891312 
z"/>
<path fill="#000000" opacity="1.000000" stroke="none" 
	d="
M144.166718,268.000763 
	C130.912003,282.025757 117.657280,296.050751 104.102921,310.392792 
	C85.700279,295.536499 67.409950,280.770905 47.887028,265.010223 
	C80.317474,265.010223 111.169037,265.010223 142.600983,265.364502 
	C143.509811,266.479462 143.838272,267.240112 144.166718,268.000763 
z"/>
<path fill="#C8EFFE" opacity="1.000000" stroke="none" 
	d="
M176.944092,394.038483 
	C174.411209,394.359009 171.880951,394.702057 169.345001,394.996002 
	C159.959717,396.083923 152.122238,393.285095 146.065948,385.418335 
	C144.620178,379.991455 143.300751,374.876068 141.988220,368.941223 
	C142.299606,366.433014 142.604095,364.744232 142.908600,363.055450 
	C146.227158,358.971771 149.545700,354.888062 152.939499,350.484375 
	C160.560089,346.562164 168.232376,345.466187 176.699051,349.264465 
	C180.869904,353.040009 184.480560,356.543915 188.133972,360.363068 
	C188.471359,361.416504 188.765991,362.154694 189.044907,363.322266 
	C189.039597,368.870422 189.049988,373.989197 189.031128,379.424133 
	C188.697144,380.481812 188.392410,381.223389 187.783585,382.118774 
	C183.967697,386.194611 180.455887,390.116547 176.944092,394.038483 
z"/>
<path fill="#C8EFFE" opacity="1.000000" stroke="none" 
	d="
M176.943436,165.070099 
	C169.079468,167.754471 161.318497,168.222809 153.393707,163.913483 
	C149.828888,159.672485 146.646301,155.511124 143.223907,150.767029 
	C142.637054,148.492065 142.290009,146.799850 141.942963,145.107620 
	C143.258682,139.951294 144.574387,134.794952 145.914413,129.266357 
	C153.378693,118.372292 163.736084,117.447762 175.750275,120.371017 
	C180.175537,124.489487 184.004868,128.249893 187.964203,132.311249 
	C188.416275,133.372269 188.738342,134.132339 189.045380,135.321686 
	C189.040390,140.869965 189.050415,145.988983 189.037537,151.425995 
	C188.707825,152.480896 188.401016,153.217758 187.788651,154.108429 
	C183.969879,157.864838 180.456665,161.467468 176.943436,165.070099 
z"/>
<path fill="#C8EFFE" opacity="1.000000" stroke="none" 
	d="
M144.441437,268.179199 
	C143.838272,267.240112 143.509811,266.479462 143.063843,265.415009 
	C142.957397,259.993378 142.968460,254.875549 142.962189,249.324524 
	C144.551010,246.178741 146.157166,243.466156 147.806747,240.413483 
	C153.028442,237.796997 158.206711,235.520630 163.736206,233.086121 
	C168.072937,233.275543 172.058426,233.623093 176.535065,234.263443 
	C180.715866,238.386429 184.405502,242.216614 188.129333,246.361023 
	C188.462463,247.414276 188.761383,248.153305 189.054047,249.317215 
	C189.052063,254.863815 189.056335,259.985565 189.032349,265.422852 
	C188.701675,266.477325 188.399292,267.216248 187.791763,268.109497 
	C185.888275,270.115234 184.315170,271.989197 182.685059,273.812134 
	C180.778473,275.944244 178.822189,278.031860 176.887451,280.138733 
	C170.230118,280.096588 163.572784,280.054413 156.491760,279.941681 
	C152.284088,276.033295 148.500122,272.195465 144.441437,268.179199 
z"/>
<path fill="#000000" opacity="1.000000" stroke="none" 
	d="
M142.590271,362.931122 
	C142.604095,364.744232 142.299606,366.433014 141.969009,368.507111 
	C130.842529,371.518646 119.742134,374.144867 108.649651,376.769226 
	C102.884789,367.467621 97.058853,358.067474 90.959450,348.226074 
	C95.563004,343.312286 100.258713,338.300171 105.449188,332.759918 
	C117.815430,342.850586 130.043701,352.828705 142.590271,362.931122 
z"/>
<path fill="#000000" opacity="1.000000" stroke="none" 
	d="
M141.538269,145.058426 
	C142.290009,146.799850 142.637054,148.492065 142.946350,150.564392 
	C132.177536,159.572632 121.446480,168.200775 111.320778,176.342194 
	C106.459091,171.638824 101.808289,167.054153 97.053024,162.580536 
	C95.118034,160.760162 94.508881,159.552261 96.406815,156.860733 
	C100.819679,150.602661 104.543739,143.858871 108.626083,137.182495 
	C119.357246,139.766205 130.245407,142.387711 141.538269,145.058426 
z"/>
<path fill="#000000" opacity="1.000000" stroke="none" 
	d="
M52.254417,389.386230 
	C61.088341,379.913513 69.922264,370.440796 79.082825,360.617828 
	C83.368217,367.432465 87.520851,374.035980 92.018166,381.187592 
	C79.179260,384.160278 66.542206,387.086212 53.291168,389.867676 
	C52.536266,389.610931 52.395344,389.498596 52.254417,389.386230 
z"/>
<path fill="#000000" opacity="1.000000" stroke="none" 
	d="
M79.730209,183.770309 
	C81.769569,180.631683 83.542206,177.758713 85.714256,174.238403 
	C89.939758,178.891342 93.850876,183.198090 97.701492,187.438217 
	C85.067299,197.653992 72.420837,207.879684 59.774368,218.105377 
	C59.550526,217.910843 59.326683,217.716309 59.102840,217.521774 
	C65.889717,206.359833 72.676598,195.197891 79.730209,183.770309 
z"/>
<path fill="#000000" opacity="1.000000" stroke="none" 
	d="
M63.763268,304.258301 
	C62.050156,301.454346 60.599949,298.918701 59.149742,296.383026 
	C59.360306,296.225464 59.570869,296.067902 59.781437,295.910370 
	C70.717239,304.748871 81.653038,313.587372 92.499222,322.353455 
	C89.053535,325.824036 85.505768,329.397461 81.692413,333.238373 
	C75.757538,323.592804 69.891853,314.059692 63.763268,304.258301 
z"/>
<path fill="#000000" opacity="1.000000" stroke="none" 
	d="
M68.960831,127.031769 
	C76.821938,129.076981 84.271835,131.095901 91.872536,133.155716 
	C88.810432,137.897842 85.852829,142.478119 82.688179,147.379059 
	C75.948868,140.110367 69.582748,133.244186 62.723900,125.846565 
	C65.146675,126.328545 66.848152,126.667023 68.960831,127.031769 
z"/>
<path fill="#000000" opacity="1.000000" stroke="none" 
	d="
M52.877708,389.904541 
	C52.512623,390.318420 51.947010,390.550995 51.381401,390.783600 
	C51.525192,390.446228 51.668980,390.108887 52.033592,389.578857 
	C52.395344,389.498596 52.536266,389.610931 52.877708,389.904541 
z"/>
<path fill="#D2CFE9" opacity="1.000000" stroke="none" 
	d="
M187.834183,132.010300 
	C184.004868,128.249893 180.175537,124.489487 176.176971,120.448051 
	C187.132599,108.570618 198.257477,96.974220 209.507385,85.247490 
	C198.458313,73.783340 187.818466,62.743778 177.062714,51.388031 
	C180.452225,47.464722 183.957611,43.857609 188.086212,40.216675 
	C199.623322,50.982788 210.537216,61.782726 221.379456,72.511757 
	C232.361877,61.180386 243.690811,49.491493 255.019745,37.802601 
	C258.372009,41.630314 261.724243,45.458027 265.280029,49.572216 
	C263.501343,52.227779 261.641479,54.713371 259.515625,56.945641 
	C250.656860,66.247795 241.718033,75.473709 232.766266,84.771538 
	C244.287933,96.791695 255.580048,108.572372 267.013275,120.671646 
	C263.376312,124.615471 259.598236,128.240707 255.354279,131.618759 
	C243.116867,120.577766 231.345291,109.783943 219.425034,98.853798 
	C209.977295,108.769768 198.905746,120.390038 187.834183,132.010300 
z"/>
<path fill="#000000" opacity="1.000000" stroke="none" 
	d="
M254.986969,37.610096 
	C243.690811,49.491493 232.361877,61.180386 221.379456,72.511757 
	C210.537216,61.782726 199.623322,50.982788 188.394470,40.065617 
	C188.328934,39.201431 188.578323,38.454479 188.942963,37.408592 
	C210.692978,37.074181 232.327744,37.038692 254.420807,37.018764 
	C254.879105,37.034325 254.954208,37.417591 254.986969,37.610096 
z"/>
<path fill="#D2CFE9" opacity="1.000000" stroke="none" 
	d="
M177.054230,394.358917 
	C180.455887,390.116547 183.967697,386.194611 188.094543,382.240845 
	C199.671494,393.623932 210.633362,405.038788 222.420395,417.312927 
	C223.965591,415.258270 224.917465,413.667664 226.174179,412.372955 
	C236.064072,402.183899 246.012207,392.051361 255.942398,381.901398 
	C259.535065,385.428284 263.127716,388.955200 266.938232,392.745178 
	C256.188690,404.633636 245.221283,416.259033 233.402710,428.786682 
	C244.425034,439.846161 255.678223,451.137268 267.094116,462.742126 
	C263.415497,466.954498 259.574127,470.853119 255.263153,474.547180 
	C252.199677,471.398987 249.734985,468.328308 246.987885,465.535431 
	C238.562088,456.969086 230.027985,448.509338 221.242691,439.714508 
	C209.909882,451.447205 198.992111,462.750244 188.074310,474.053284 
	C184.466141,470.552246 180.858002,467.051239 177.094269,463.245667 
	C187.952667,451.322357 198.966644,439.703583 210.252457,427.798035 
	C199.209183,416.744537 188.186783,405.711945 177.054230,394.358917 
z"/>
<path fill="#000000" opacity="1.000000" stroke="none" 
	d="
M188.035217,474.369629 
	C198.992111,462.750244 209.909882,451.447205 221.242691,439.714508 
	C230.027985,448.509338 238.562088,456.969086 246.987885,465.535431 
	C249.734985,468.328308 252.199677,471.398987 254.947998,474.655457 
	C255.063019,475.419983 255.023575,475.871643 254.915710,476.657349 
	C233.226151,476.990875 211.605011,476.990295 189.521942,476.940857 
	C188.705353,476.156616 188.350708,475.421265 188.035217,474.369629 
z"/>
<path fill="#D2CFE9" opacity="1.000000" stroke="none" 
	d="
M177.009094,280.453827 
	C178.822189,278.031860 180.778473,275.944244 182.685059,273.812134 
	C184.315170,271.989197 185.888275,270.115234 188.104233,268.228333 
	C199.718491,279.581177 210.715134,290.969574 220.731903,301.343170 
	C232.753281,289.923370 244.363098,278.894531 255.972931,267.865723 
	C259.581146,271.385254 263.189392,274.904785 267.009918,278.693848 
	C256.207916,290.568512 245.193649,302.173676 233.775238,314.204651 
	C244.728836,325.510284 255.826706,336.964813 267.082886,348.733948 
	C263.679565,352.624084 260.118011,356.199585 255.969345,359.835876 
	C244.091721,348.627686 232.801193,337.358765 223.096527,327.672699 
	C211.401276,338.489197 199.746277,349.268524 188.091248,360.047791 
	C184.480560,356.543915 180.869904,353.040009 177.099762,349.234802 
	C187.915085,337.285645 198.889847,325.637756 209.851700,314.003601 
	C198.999603,302.981110 188.065155,291.875000 177.009094,280.453827 
z"/>
<path fill="#D2CFE9" opacity="1.000000" stroke="none" 
	d="
M188.095123,246.046783 
	C184.405502,242.216614 180.715866,238.386429 176.956879,234.208740 
	C188.212677,222.914932 199.537811,211.968628 210.943008,200.944946 
	C199.093597,188.577515 188.136002,177.140900 177.060913,165.387177 
	C180.456665,161.467468 183.969879,157.864838 188.101593,154.226685 
	C200.464722,164.615936 212.209335,175.040726 224.763580,186.184143 
	C233.621231,177.008301 244.818558,165.408722 256.015869,153.809143 
	C259.634949,157.331055 263.253998,160.852997 267.060669,164.663727 
	C256.180206,176.511475 245.112213,188.070419 233.765457,199.920456 
	C244.807800,211.407593 255.858994,222.903931 267.062378,234.715271 
	C263.645905,238.591736 260.077271,242.153183 255.925415,245.789215 
	C243.716949,235.090485 232.091705,224.317184 220.466446,213.543884 
	C220.013123,212.646027 219.119186,214.285767 217.866486,215.577606 
	C207.981323,225.771454 198.027695,235.898895 188.095123,246.046783 
z"/>
<path fill="#000000" opacity="1.000000" stroke="none" 
	d="
M187.964203,132.311249 
	C198.905746,120.390038 209.977295,108.769768 219.425034,98.853798 
	C231.345291,109.783943 243.116867,120.577766 255.027557,131.684296 
	C255.104645,132.752869 255.042603,133.508728 254.447800,134.633362 
	C232.296829,134.965546 210.678619,134.928970 189.060410,134.892395 
	C188.738342,134.132339 188.416275,133.372269 187.964203,132.311249 
z"/>
<path fill="#000000" opacity="1.000000" stroke="none" 
	d="
M255.890991,153.521301 
	C244.818558,165.408722 233.621231,177.008301 224.763580,186.184143 
	C212.209335,175.040726 200.464722,164.615936 188.407150,154.072906 
	C188.401016,153.217758 188.707825,152.480896 189.499542,151.377380 
	C211.604599,151.009552 233.224716,151.008362 254.844833,151.007172 
	C255.151901,151.749268 255.458984,152.491364 255.890991,153.521301 
z"/>
<path fill="#D2CFE9" opacity="1.000000" stroke="none" 
	d="
M254.873383,150.591400 
	C233.224716,151.008362 211.604599,151.009552 189.522461,151.059357 
	C189.050415,145.988983 189.040390,140.869965 189.045380,135.321686 
	C210.678619,134.928970 232.296829,134.965546 254.368866,135.005600 
	C254.849106,140.064590 254.875519,145.120117 254.873383,150.591400 
z"/>
<path fill="#000000" opacity="1.000000" stroke="none" 
	d="
M255.865341,381.588562 
	C246.012207,392.051361 236.064072,402.183899 226.174179,412.372955 
	C224.917465,413.667664 223.965591,415.258270 222.420395,417.312927 
	C210.633362,405.038788 199.671494,393.623932 188.398651,382.087006 
	C188.392410,381.223389 188.697144,380.481812 189.493134,379.375397 
	C211.597824,379.004150 233.211258,378.997803 254.824707,378.991455 
	C255.145889,379.752869 255.467087,380.514313 255.865341,381.588562 
z"/>
<path fill="#000000" opacity="1.000000" stroke="none" 
	d="
M188.134003,360.363098 
	C199.746277,349.268524 211.401276,338.489197 223.096527,327.672699 
	C232.801193,337.358765 244.091721,348.627686 255.697754,360.043365 
	C255.670853,360.919525 255.328430,361.648926 254.459778,362.688477 
	C232.309235,362.963379 210.684921,362.928101 189.060608,362.892822 
	C188.765991,362.154694 188.471359,361.416504 188.134003,360.363098 
z"/>
<path fill="#D2CFE9" opacity="1.000000" stroke="none" 
	d="
M189.044907,363.322235 
	C210.684921,362.928101 232.309235,362.963379 254.389481,362.995422 
	C254.840240,368.051392 254.835083,373.110626 254.827301,378.580627 
	C233.211258,378.997803 211.597824,379.004150 189.522385,379.059265 
	C189.049988,373.989197 189.039597,368.870422 189.044907,363.322235 
z"/>
<path fill="#000000" opacity="1.000000" stroke="none" 
	d="
M255.875916,267.561951 
	C244.363098,278.894531 232.753281,289.923370 220.731903,301.343170 
	C210.715134,290.969574 199.718491,279.581177 188.409393,268.073975 
	C188.399292,267.216248 188.701675,266.477325 189.494339,265.374390 
	C211.600662,265.005890 233.216721,265.001434 254.832764,264.996948 
	C255.148163,265.750702 255.463547,266.504486 255.875916,267.561951 
z"/>
<path fill="#000000" opacity="1.000000" stroke="none" 
	d="
M188.129333,246.361008 
	C198.027695,235.898895 207.981323,225.771454 217.866486,215.577606 
	C219.119186,214.285767 220.013123,212.646027 220.466446,213.543884 
	C232.091705,224.317184 243.716949,235.090485 255.656860,245.998825 
	C255.642975,246.880966 255.314453,247.628082 254.457977,248.687469 
	C232.306763,248.963959 210.683533,248.928162 189.060303,248.892349 
	C188.761383,248.153305 188.462463,247.414276 188.129333,246.361008 
z"/>
<path fill="#D2CFE9" opacity="1.000000" stroke="none" 
	d="
M189.054047,249.317215 
	C210.683533,248.928162 232.306763,248.963959 254.385559,248.997879 
	C254.842926,254.055267 254.844727,259.114532 254.839645,264.585388 
	C233.216721,265.001434 211.600662,265.005890 189.522614,265.058838 
	C189.056335,259.985565 189.052063,254.863815 189.054047,249.317215 
z"/>
</svg>